<svg xmlns="http://www.w3.org/2000/svg" xmlns:xlink="http://www.w3.org/1999/xlink" xmlns:serif="http://www.serif.com/" viewBox="0 0 64 80" version="1.1" xml:space="preserve" style="" x="0px" y="0px" fill-rule="evenodd" clip-rule="evenodd" stroke-linejoin="round" stroke-miterlimit="2"><g><path d="M50.008,4l-0.008,-0l-36,-0c-5.523,-0 -10,4.477 -10,10l-0,36c0,5.523 4.477,10 10,10c9.777,-0 26.223,-0 36,-0c2.652,0 5.196,-1.054 7.071,-2.929c1.875,-1.875 2.929,-4.419 2.929,-7.071l-0,-36c0,-2.652 -1.054,-5.196 -2.929,-7.071c-1.846,-1.846 -4.34,-2.896 -6.947,-2.928l0,0.003l-0.116,-0.004Zm-20.008,10.306c-8.233,0.923 -14.775,7.467 -15.694,15.698c-1.042,0.069 -1.867,0.937 -1.867,1.996c0,1.059 0.825,1.927 1.867,1.996c0.92,8.232 7.462,14.776 15.694,15.698l0,0.306c0,1.104 0.896,2 2,2c1.104,-0 2,-0.896 2,-2l-0,-0.306c8.233,-0.923 14.775,-7.467 15.694,-15.698c1.042,-0.069 1.867,-0.937 1.867,-1.996c-0,-1.059 -0.825,-1.927 -1.867,-1.996c-0.92,-8.232 -7.462,-14.776 -15.694,-15.698l-0,-0.306c0,-1.104 -0.896,-2 -2,-2c-1.104,-0 -2,0.896 -2,2l0,0.306Zm0,4.033c-6.019,0.875 -10.785,5.641 -11.661,11.661l4.002,0c1.104,-0 2,0.896 2,2c0,1.104 -0.896,2 -2,2l-4.002,0c0.875,6.019 5.641,10.785 11.661,11.661l0,-3.563c0,-1.104 0.896,-2 2,-2c1.104,-0 2,0.896 2,2l-0,3.563c6.019,-0.875 10.785,-5.641 11.661,-11.661l-4.002,0c-1.104,-0 -2,-0.896 -2,-2c-0,-1.104 0.896,-2 2,-2l4.002,0c-0.875,-6.019 -5.641,-10.785 -11.661,-11.661l-0,3.563c0,1.104 -0.896,2 -2,2c-1.104,0 -2,-0.896 -2,-2l0,-3.563Z"/></g><text x="0" y="79" fill="#000000" font-size="5px" font-weight="bold" font-family="'Helvetica Neue', Helvetica, Arial-Unicode, Arial, Sans-serif">Created by icelloid</text><text x="0" y="84" fill="#000000" font-size="5px" font-weight="bold" font-family="'Helvetica Neue', Helvetica, Arial-Unicode, Arial, Sans-serif">from the Noun Project</text></svg>